mtllib model_2.mtl
o model_2
v -5.968702793121338 -7.612859725952148 2.1763482093811035 
v -5.985844612121582 -7.612859725952148 2.1893105506896973 
v -5.968702793121338 -7.728465557098389 2.1763482093811035 
v -5.985844612121582 -7.728969097137451 2.1894257068634033 
v -6.002986907958984 -7.612859725952148 2.2022500038146973 
v -6.020227432250977 -7.612859725952148 2.215212345123291 
v -6.002986907958984 -7.729472637176514 2.2024803161621094 
v -6.020030498504639 -7.729975700378418 2.215557813644409 
v -5.968702793121338 -7.728465557098389 2.1763482093811035 
v -5.985844612121582 -7.728969097137451 2.1894257068634033 
v -6.014907360076904 -7.774216651916504 2.176279067993164 
v -6.032344818115234 -7.774720191955566 2.1889193058013916 
v -6.002986907958984 -7.729472637176514 2.2024803161621094 
v -6.020030498504639 -7.729975700378418 2.215557813644409 
v -6.049684047698975 -7.775223731994629 2.20155930519104 
v -6.067121505737305 -7.775726795196533 2.2141993045806885 
v -5.990278244018555 -7.770309925079346 2.0727179050445557 
v -5.981017589569092 -7.770309925079346 2.0345444679260254 
v -5.95658540725708 -7.736903190612793 2.0727639198303223 
v -5.947226047515869 -7.736903190612793 2.034590482711792 
v -6.003085613250732 -7.770309925079346 2.110868453979492 
v -5.990278244018555 -7.770309925079346 2.0727179050445557 
v -5.969392776489258 -7.736903190612793 2.110914468765259 
v -5.95658540725708 -7.736903190612793 2.0727639198303223 
v -5.985844612121582 -7.496730327606201 2.1894257068634033 
v -5.985844612121582 -7.612859725952148 2.1893105506896973 
v -5.968702793121338 -7.4972333908081055 2.1763482093811035 
v -5.968702793121338 -7.612859725952148 2.1763482093811035 
v -6.020030498504639 -7.495723247528076 2.215557813644409 
v -6.020227432250977 -7.612859725952148 2.215212345123291 
v -6.002986907958984 -7.496226787567139 2.2024803161621094 
v -6.002986907958984 -7.612859725952148 2.2022500038146973 
v -6.032344818115234 -7.450979232788086 2.1889193058013916 
v -5.985844612121582 -7.496730327606201 2.1894257068634033 
v -6.014907360076904 -7.451482772827148 2.176279067993164 
v -5.968702793121338 -7.4972333908081055 2.1763482093811035 
v -6.067121505737305 -7.449972152709961 2.2141993045806885 
v -6.020030498504639 -7.495723247528076 2.215557813644409 
v -6.049684047698975 -7.450475692749023 2.20155930519104 
v -6.002986907958984 -7.496226787567139 2.2024803161621094 
v -5.947226047515869 -7.488796234130859 2.034590482711792 
v -5.981017589569092 -7.455389022827148 2.0345444679260254 
v -5.95658540725708 -7.488796234130859 2.0727639198303223 
v -5.990278244018555 -7.455389022827148 2.0727179050445557 
v -5.95658540725708 -7.488796234130859 2.0727639198303223 
v -5.990278244018555 -7.455389022827148 2.0727179050445557 
v -5.969392776489258 -7.488796234130859 2.110914468765259 
v -6.003085613250732 -7.455389022827148 2.110868453979492 
vn 1.8946583271026611 0.011857216246426105 2.509652853012085 
vn 1.8946583271026611 0.011857216246426105 2.509652853012085 
vn 1.8946583271026611 0.011857216246426105 2.509652853012085 
vn 1.8946583271026611 0.011857216246426105 2.509652853012085 
vn 1.8946583271026611 0.011857216246426105 2.509652853012085 
vn 1.8946583271026611 0.011857216246426105 2.509652853012085 
vn 1.8946583271026611 0.011857216246426105 2.509652853012085 
vn 1.8946583271026611 0.011857216246426105 2.509652853012085 
vn 1.626357913017273 -1.6556986570358276 2.121756076812744 
vn 1.626357913017273 -1.6556986570358276 2.121756076812744 
vn 1.626357913017273 -1.6556986570358276 2.121756076812744 
vn 1.626357913017273 -1.6556986570358276 2.121756076812744 
vn 1.611707329750061 -1.6955149173736572 2.101393938064575 
vn 1.611707329750061 -1.6955149173736572 2.101393938064575 
vn 1.611707329750061 -1.6955149173736572 2.101393938064575 
vn 1.611707329750061 -1.6955149173736572 2.101393938064575 
vn 2.1820931434631348 -2.1988775730133057 0.5400314927101135 
vn 2.1820931434631348 -2.1988775730133057 0.5400314927101135 
vn 2.1820931434631348 -2.1988775730133057 0.5400314927101135 
vn 2.1820931434631348 -2.1988775730133057 0.5400314927101135 
vn 2.158989906311035 -2.1715714931488037 0.7150295376777649 
vn 2.158989906311035 -2.1715714931488037 0.7150295376777649 
vn 2.158989906311035 -2.1715714931488037 0.7150295376777649 
vn 2.158989906311035 -2.1715714931488037 0.7150295376777649 
vn 1.8946583271026611 -0.011857216246426105 2.509652853012085 
vn 1.8946583271026611 -0.011857216246426105 2.509652853012085 
vn 1.8946583271026611 -0.011857216246426105 2.509652853012085 
vn 1.8946583271026611 -0.011857216246426105 2.509652853012085 
vn 1.8946583271026611 -0.011857216246426105 2.509652853012085 
vn 1.8946583271026611 -0.011857216246426105 2.509652853012085 
vn 1.8946583271026611 -0.011857216246426105 2.509652853012085 
vn 1.8946583271026611 -0.011857216246426105 2.509652853012085 
vn 1.6178789138793945 1.6639848947525024 2.121756076812744 
vn 1.6178789138793945 1.6639848947525024 2.121756076812744 
vn 1.6178789138793945 1.6639848947525024 2.121756076812744 
vn 1.6178789138793945 1.6639848947525024 2.121756076812744 
vn 1.611707329750061 1.6955149173736572 2.101393938064575 
vn 1.611707329750061 1.6955149173736572 2.101393938064575 
vn 1.611707329750061 1.6955149173736572 2.101393938064575 
vn 1.611707329750061 1.6955149173736572 2.101393938064575 
vn 2.1820931434631348 2.1988775730133057 0.5400314927101135 
vn 2.1820931434631348 2.1988775730133057 0.5400314927101135 
vn 2.1820931434631348 2.1988775730133057 0.5400314927101135 
vn 2.1820931434631348 2.1988775730133057 0.5400314927101135 
vn 2.150561571121216 2.1799185276031494 0.7150295376777649 
vn 2.150561571121216 2.1799185276031494 0.7150295376777649 
vn 2.150561571121216 2.1799185276031494 0.7150295376777649 
vn 2.150561571121216 2.1799185276031494 0.7150295376777649 
vt 0.41936564445495605 0.49705901741981506 
vt 0.5232189893722534 0.49705901741981506 
vt 0.41936564445495605 0.8324357867240906 
vt 0.5234406590461731 0.8338196873664856 
vt 0.046069998294115067 0.500057578086853 
vt 0.14992332458496094 0.500057578086853 
vt 0.04640250653028488 0.8382022380828857 
vt 0.15047751367092133 0.8397014737129211 
vt 0.41936564445495605 0.8324357867240906 
vt 0.5234406590461731 0.8338196873664856 
vt 0.5965924263000488 0.9650641083717346 
vt 0.7004457712173462 0.9665634036064148 
vt 0.04640250653028488 0.8382022380828857 
vt 0.15047751367092133 0.8397014737129211 
vt 0.22329676151275635 0.9708305597305298 
vt 0.3271501064300537 0.97232985496521 
vt 0.7926613092422485 0.5123977661132812 
vt 0.7926613092422485 0.42370977997779846 
vt 0.9539276957511902 0.4346660375595093 
vt 0.9539276957511902 0.3459780514240265 
vt 0.7926613092422485 0.6089281439781189 
vt 0.7926613092422485 0.5123977661132812 
vt 0.9539276957511902 0.5311964154243469 
vt 0.9539276957511902 0.4346660375595093 
vt 0.5234406590461731 0.16029834747314453 
vt 0.5232189893722534 0.49705901741981506 
vt 0.41936564445495605 0.1617976278066635 
vt 0.41936564445495605 0.49705901741981506 
vt 0.15047751367092133 0.16029834747314453 
vt 0.14992332458496094 0.500057578086853 
vt 0.04640250653028488 0.1617976278066635 
vt 0.046069998294115067 0.500057578086853 
vt 0.7004457712173462 0.0276699997484684 
vt 0.5234406590461731 0.16029834747314453 
vt 0.5965924263000488 0.029169276356697083 
vt 0.41936564445495605 0.1617976278066635 
vt 0.3271501064300537 0.0276699997484684 
vt 0.15047751367092133 0.16029834747314453 
vt 0.22329676151275635 0.029169276356697083 
vt 0.04640250653028488 0.1617976278066635 
vt 0.9539276957511902 0.2906201183795929 
vt 0.7926613092422485 0.21288837492465973 
vt 0.9539276957511902 0.2019321173429489 
vt 0.7926613092422485 0.12420037388801575 
vt 0.9539276957511902 0.2019321173429489 
vt 0.7926613092422485 0.12420037388801575 
vt 0.9539276957511902 0.10540174692869186 
vt 0.7926613092422485 0.0276699997484684 
s on 
f 1/1/1 2/2/2 3/3/3 
f 2/2/2 4/4/4 3/3/3 
f 3/3/3 4/4/4 4/4/4 
f 4/4/4 5/5/5 4/4/4 
f 4/4/4 5/5/5 5/5/5 
f 5/5/5 6/6/6 5/5/5 
f 5/5/5 6/6/6 7/7/7 
f 6/6/6 8/8/8 7/7/7 
f 7/7/7 8/8/8 8/8/8 
f 8/8/8 9/9/9 8/8/8 
f 8/8/8 9/9/9 9/9/9 
f 9/9/9 10/10/10 9/9/9 
f 9/9/9 10/10/10 11/11/11 
f 10/10/10 12/12/12 11/11/11 
f 11/11/11 12/12/12 12/12/12 
f 12/12/12 13/13/13 12/12/12 
f 12/12/12 13/13/13 13/13/13 
f 13/13/13 14/14/14 13/13/13 
f 13/13/13 14/14/14 15/15/15 
f 14/14/14 16/16/16 15/15/15 
f 15/15/15 16/16/16 16/16/16 
f 16/16/16 17/17/17 16/16/16 
f 16/16/16 17/17/17 17/17/17 
f 17/17/17 18/18/18 17/17/17 
f 17/17/17 18/18/18 19/19/19 
f 18/18/18 20/20/20 19/19/19 
f 19/19/19 20/20/20 20/20/20 
f 20/20/20 21/21/21 20/20/20 
f 20/20/20 21/21/21 21/21/21 
f 21/21/21 22/22/22 21/21/21 
f 21/21/21 22/22/22 23/23/23 
f 22/22/22 24/24/24 23/23/23 
f 23/23/23 24/24/24 24/24/24 
f 24/24/24 25/25/25 24/24/24 
f 24/24/24 25/25/25 25/25/25 
f 25/25/25 26/26/26 25/25/25 
f 25/25/25 26/26/26 27/27/27 
f 26/26/26 28/28/28 27/27/27 
f 27/27/27 28/28/28 28/28/28 
f 28/28/28 29/29/29 28/28/28 
f 28/28/28 29/29/29 29/29/29 
f 29/29/29 30/30/30 29/29/29 
f 29/29/29 30/30/30 31/31/31 
f 30/30/30 32/32/32 31/31/31 
f 31/31/31 32/32/32 32/32/32 
f 32/32/32 33/33/33 32/32/32 
f 32/32/32 33/33/33 33/33/33 
f 33/33/33 34/34/34 33/33/33 
f 33/33/33 34/34/34 35/35/35 
f 34/34/34 36/36/36 35/35/35 
f 35/35/35 36/36/36 36/36/36 
f 36/36/36 37/37/37 36/36/36 
f 36/36/36 37/37/37 37/37/37 
f 37/37/37 38/38/38 37/37/37 
f 37/37/37 38/38/38 39/39/39 
f 38/38/38 40/40/40 39/39/39 
f 39/39/39 40/40/40 40/40/40 
f 40/40/40 41/41/41 40/40/40 
f 40/40/40 41/41/41 41/41/41 
f 41/41/41 42/42/42 41/41/41 
f 41/41/41 42/42/42 43/43/43 
f 42/42/42 44/44/44 43/43/43 
f 43/43/43 44/44/44 44/44/44 
f 44/44/44 45/45/45 44/44/44 
f 44/44/44 45/45/45 45/45/45 
f 45/45/45 46/46/46 45/45/45 
f 45/45/45 46/46/46 47/47/47 
f 46/46/46 48/48/48 47/47/47 

